<svg width="77" height="77" viewBox="0 0 77 77" fill="none" xmlns="http://www.w3.org/2000/svg">
<path fill-rule="evenodd" clip-rule="evenodd" d="M17.6155 57.6507C17.6155 57.226 17.7842 56.8186 18.0845 56.5183C18.3849 56.218 18.7922 56.0493 19.2169 56.0493H57.6507C58.0754 56.0493 58.4828 56.218 58.7831 56.5183C59.0834 56.8186 59.2521 57.226 59.2521 57.6507C59.2521 58.0754 59.0834 58.4827 58.7831 58.7831C58.4828 59.0834 58.0754 59.2521 57.6507 59.2521H19.2169C18.7922 59.2521 18.3849 59.0834 18.0845 58.7831C17.7842 58.4827 17.6155 58.0754 17.6155 57.6507Z" fill="#757575"/>
<path d="M28.8254 36.8324H22.4197C21.5353 36.8324 20.8183 37.5494 20.8183 38.4338V57.6507C20.8183 58.5351 21.5353 59.2521 22.4197 59.2521H28.8254C29.7098 59.2521 30.4268 58.5351 30.4268 57.6507V38.4338C30.4268 37.5494 29.7098 36.8324 28.8254 36.8324Z" fill="#757575"/>
<path d="M41.6366 17.6155H35.231C34.3466 17.6155 33.6296 18.3325 33.6296 19.2169V57.6507C33.6296 58.5351 34.3466 59.2521 35.231 59.2521H41.6366C42.5211 59.2521 43.238 58.5351 43.238 57.6507V19.2169C43.238 18.3325 42.5211 17.6155 41.6366 17.6155Z" fill="#757575"/>
<path d="M54.4479 27.2239H48.0423C47.1578 27.2239 46.4409 27.9409 46.4409 28.8253V57.6507C46.4409 58.5351 47.1578 59.2521 48.0423 59.2521H54.4479C55.3323 59.2521 56.0493 58.5351 56.0493 57.6507V28.8253C56.0493 27.9409 55.3323 27.2239 54.4479 27.2239Z" fill="#757575"/>
</svg>
