<svg width="60" height="60" viewBox="0 0 60 60" fill="none" xmlns="http://www.w3.org/2000/svg">
<path fill-rule="evenodd" clip-rule="evenodd" d="M49.83 2.555C45.7412 2.2225 39.2513 1.875 30 1.875C20.7488 1.875 14.2587 2.2225 10.17 2.555C6.06 2.8875 2.8875 6.06 2.555 10.17C2.2225 14.2587 1.875 20.7488 1.875 30C1.875 39.2513 2.2225 45.7412 2.555 49.83C2.88875 53.94 6.06 57.1113 10.17 57.445C14.2587 57.7775 20.7488 58.125 30 58.125C39.2513 58.125 45.7412 57.7775 49.83 57.445C53.94 57.1113 57.1113 53.94 57.445 49.83C57.7775 45.7412 58.125 39.2513 58.125 30C58.125 20.7488 57.7775 14.2587 57.445 10.17C57.1113 6.06 53.94 2.88875 49.83 2.555ZM31.5775 7.41125C31.1405 7.03036 30.5803 6.82052 30.0006 6.82052C29.4209 6.82052 28.8608 7.03036 28.4237 7.41125C26.195 9.29 22.5688 12.5212 17.5462 17.545C12.5225 22.5675 9.29125 26.1938 7.4125 28.4225C7.03161 28.8595 6.82177 29.4197 6.82177 29.9994C6.82177 30.5791 7.03161 31.1392 7.4125 31.5763C9.29125 33.8062 12.5225 37.4325 17.5462 42.455C22.57 47.4775 26.195 50.7087 28.4237 52.5887C28.8608 52.9696 29.4209 53.1795 30.0006 53.1795C30.5803 53.1795 31.1405 52.9696 31.5775 52.5887C33.8075 50.71 37.4338 47.4775 42.4562 42.455C47.4788 37.4325 50.71 33.8062 52.59 31.5763C53.3775 30.6412 53.3775 29.3588 52.59 28.4237C50.71 26.1938 47.4788 22.5675 42.4562 17.545C37.4338 12.5212 33.8075 9.29 31.5775 7.41125Z" fill="black"/>
</svg>
